<svg xmlns="http://www.w3.org/2000/svg" version="1.1" xmlns:xlink="http://www.w3.org/1999/xlink" xmlns:svgjs="http://svgjs.dev/svgjs" width="5880" height="5340"><svg style="transform:matrix(1,0,0,1,0,0);transform-origin:50% 50%;cursor:move;max-height:487px;transition:transform 200ms ease-in-out" viewBox="0 0 5880 5340" version="1.1" id="SvgjsSvg1009" sodipodi:docname="cigales-logo.svg" inkscape:version="1.2.2 (b0a8486541, 2022-12-01)" xmlns:inkscape="http://www.inkscape.org/namespaces/inkscape" xmlns:sodipodi="http://sodipodi.sourceforge.net/DTD/sodipodi-0.dtd" xmlns="http://www.w3.org/2000/svg" xmlns:svg="http://www.w3.org/2000/svg">
  <defs id="SvgjsDefs1008"></defs>
  <sodipodi:namedview id="SvgjsSodipodi:namedview1007" pagecolor="#ffffff" bordercolor="#000000" borderopacity="0.25" inkscape:showpageshadow="2" inkscape:pageopacity="0.0" inkscape:pagecheckerboard="0" inkscape:deskcolor="#d1d1d1" showgrid="false" inkscape:zoom="0.1923221" inkscape:cx="2937.7799" inkscape:cy="2675.1996" inkscape:window-width="2494" inkscape:window-height="1371" inkscape:window-x="2626" inkscape:window-y="32" inkscape:window-maximized="1" inkscape:current-layer="svg62"></sodipodi:namedview>
  <path fill="#001f41" d="M 2779.8614,5290.437 C 2722.8062,5271.0113 513.95965,4132.1787 436.52774,4081.1861 c -28.52754,-18.2115 -69.28116,-63.1334 -92.37488,-99.5566 l -40.75363,-65.5619 V 2671.6078 c 0,-1235.9612 0,-1244.4599 28.52754,-1299.0948 14.94299,-30.3527 47.54589,-71.6323 70.63962,-92.2722 C 441.96156,1243.8176 2657.6004,94.058142 2760.843,55.206709 c 74.7151,-27.924462 222.7864,-25.496246 300.2184,4.85643 35.3198,13.355181 565.1169,282.886971 1179.1383,598.554841 813.7141,420.08102 1130.234,588.84202 1173.7045,626.47942 110.0348,100.7707 105.9594,30.3526 105.9594,1380.4398 0,1339.1602 4.0754,1282.0972 -99.1672,1379.2257 -35.3198,32.781 -385.801,220.9676 -1157.403,619.1948 -608.5875,314.4538 -1137.0262,586.4137 -1175.0629,603.4112 -82.8658,37.6373 -230.9373,48.5644 -308.3691,23.0681 z" id="SvgjsPath1006" style="stroke-width:1.28426"></path>
  <path fill="#ffffff" d="m 2521.755,4211.2753 c -10.8676,-8.3931 -187.4668,-212.2478 -391.2347,-452.0752 l -370.8582,-436.4873 133.1285,-438.8864 c 73.3567,-241.027 148.0716,-482.0539 167.0899,-534.8166 19.0184,-52.7615 81.5073,-247.0223 137.2039,-431.6904 l 103.2425,-335.759 588.0274,-78.0852 c 299.5759,32.3194 610.1294,75.6862 615.5632,80.4831 5.4337,5.9952 50.2627,141.4981 99.1671,303.3824 48.9044,161.8841 104.601,334.5605 123.6193,383.7258 43.4707,111.5194 319.2368,1009.6758 319.2368,1039.6546 0,20.3849 -755.3006,914.9438 -772.9605,914.9438 -29.886,-1.1982 -42.112,-39.5713 -70.6395,-224.2394 -16.3015,-113.9173 -33.9614,-207.4509 -39.3953,-207.4509 -4.0754,0 -58.4135,45.5679 -122.2608,101.9268 -63.8475,56.36 -123.6193,101.9267 -135.8455,101.9267 -10.8676,0 -73.3565,-46.7663 -138.5623,-104.3247 -80.1488,-70.7496 -120.9025,-98.3293 -124.9778,-86.3388 -4.0754,9.5939 -19.0183,98.3306 -33.9614,197.8582 -35.3198,230.236 -38.0367,238.6291 -85.5826,206.2525 z m 36.6783,-327.3645 c 12.2262,-85.1392 46.1875,-308.1792 76.0735,-495.2453 l 54.3381,-339.3575 -51.6213,-51.5631 c -157.5807,-160.6847 -540.6648,-532.4176 -544.7401,-528.8203 -2.7169,1.1984 -61.1305,190.6635 -131.7701,419.6987 l -126.3362,416.1026 340.972,401.7115 c 391.2348,460.4697 345.0473,438.8853 383.0841,177.4734 z M 3634.329,3713.6322 c 201.0513,-235.0317 335.5383,-402.9111 334.1799,-417.3008 -1.3585,-29.9787 -233.6542,-785.4375 -248.5972,-807.0218 -6.7923,-11.9918 -99.1671,71.948 -302.9354,271.0057 l -293.426,286.5948 51.6212,328.5642 c 29.886,181.0707 66.5642,418.5003 82.8657,530.0209 17.6598,110.321 32.6029,200.256 35.3199,200.256 2.7169,0 154.8637,-176.2737 340.9719,-392.119 z m -777.0358,-178.6716 -10.8677,-332.1627 -40.7535,-40.7697 c -21.7353,-22.784 -46.1874,-35.9752 -51.6214,-31.1783 -5.4337,4.7969 -29.8859,135.5028 -54.3381,288.9927 l -43.4705,279.4001 99.1671,88.7366 c 55.6967,49.164 103.2426,87.5372 105.9595,83.9398 2.7168,-2.3991 1.3585,-153.4899 -4.0754,-336.9585 z m 292.0676,151.0919 c 0,-9.5938 -19.0183,-143.8971 -42.112,-298.5865 l -43.4705,-280.5984 -44.829,41.9693 c -51.6213,50.3636 -54.3382,70.7496 -66.5642,477.2582 l -8.1508,257.8157 101.8841,-89.9362 c 57.0551,-49.1652 103.2424,-97.1298 103.2424,-107.9221 z m 150.7885,-906.5507 c 408.8947,-401.7116 403.461,-394.5168 366.7828,-476.0588 -14.9431,-33.5761 -16.3016,-31.1783 -309.7276,257.8146 -163.0147,160.6858 -331.4629,323.7683 -374.9334,363.3397 l -77.432,71.9492 -51.6212,-47.9657 C 2739.1077,2839.4593 2476.9261,2582.8432 2293.5347,2398.175 l -129.0531,-129.5077 -16.3014,35.9742 c -38.0368,81.5418 -35.32,87.5383 47.5458,165.4815 42.1121,39.5727 217.3528,211.0495 389.8764,380.1284 171.1651,169.0779 315.1614,308.1781 320.5952,308.1781 5.4337,0 182.0329,-170.2773 393.9517,-378.9277 z m -322.8244,52.5308 c 39.3952,-38.373 95.9626,-87.3065 125.8486,-117.284 28.5274,-29.9787 81.5072,-80.3436 115.4686,-113.9185 35.3198,-32.3778 89.658,-87.537 122.2608,-121.1132 32.603,-33.5762 110.0348,-110.3211 172.5238,-170.2785 61.1304,-61.1559 111.3932,-113.9185 111.3932,-118.7142 0,-4.797 -38.0367,-131.9055 -82.8657,-281.7991 l -84.2242,-273.4037 -551.5324,2.3979 -551.5324,3.5974 -82.8657,275.8027 c -65.2059,213.4473 -80.1489,280.5995 -67.9228,294.9891 16.3015,20.3849 517.5711,515.6303 622.1721,615.1591 35.3198,33.5761 61.1956,59.2229 64.3349,64.5213 6.9676,11.761 16.3016,7.1959 86.9412,-59.9563 z m 2542.5387,-147.2627 c 0,-401.7128 1.3585,-564.7954 2.717,-362.1403 2.7169,203.8535 2.7169,532.4176 0,731.4753 -1.3585,199.0578 -2.717,33.5761 -2.717,-369.335 z" id="SvgjsPath1005" style="stroke-width:1.28426"></path>
</svg><style>@media (prefers-color-scheme: light) { :root { filter: none; } }
@media (prefers-color-scheme: dark) { :root { filter: none; } }
</style></svg>